<mxfile host="app.diagrams.net" agent="Mozilla/5.0 (Macintosh; Intel Mac OS X 10_15_7) AppleWebKit/605.1.15 (KHTML, like Gecko) Version/16.5 Safari/605.1.15" version="24.7.10">
  <diagram name="Страница — 1" id="i9g7tokoLIn1ezmBAr_r">
    <mxGraphModel dx="1962" dy="2339" grid="1" gridSize="10" guides="1" tooltips="1" connect="1" arrows="1" fold="1" page="1" pageScale="1" pageWidth="827" pageHeight="1169" math="0" shadow="0">
      <root>
        <mxCell id="0" />
        <mxCell id="1" parent="0" />
        <mxCell id="Zf2B7JCEk5brwvJHuypl-1" value="User" style="swimlane;fontStyle=0;childLayout=stackLayout;horizontal=1;startSize=26;fillColor=none;horizontalStack=0;resizeParent=1;resizeParentMax=0;resizeLast=0;collapsible=1;marginBottom=0;whiteSpace=wrap;html=1;" parent="1" vertex="1">
          <mxGeometry x="40" y="610" width="140" height="134" as="geometry">
            <mxRectangle x="30" y="410" width="70" height="30" as="alternateBounds" />
          </mxGeometry>
        </mxCell>
        <mxCell id="Zf2B7JCEk5brwvJHuypl-3" value="+ Id" style="text;strokeColor=none;fillColor=none;align=left;verticalAlign=top;spacingLeft=4;spacingRight=4;overflow=hidden;rotatable=0;points=[[0,0.5],[1,0.5]];portConstraint=eastwest;whiteSpace=wrap;html=1;" parent="Zf2B7JCEk5brwvJHuypl-1" vertex="1">
          <mxGeometry y="26" width="140" height="26" as="geometry" />
        </mxCell>
        <mxCell id="Zf2B7JCEk5brwvJHuypl-4" value="+ Login" style="text;strokeColor=none;fillColor=none;align=left;verticalAlign=top;spacingLeft=4;spacingRight=4;overflow=hidden;rotatable=0;points=[[0,0.5],[1,0.5]];portConstraint=eastwest;whiteSpace=wrap;html=1;" parent="Zf2B7JCEk5brwvJHuypl-1" vertex="1">
          <mxGeometry y="52" width="140" height="26" as="geometry" />
        </mxCell>
        <mxCell id="Zf2B7JCEk5brwvJHuypl-6" value="+ Password" style="text;strokeColor=none;fillColor=none;align=left;verticalAlign=top;spacingLeft=4;spacingRight=4;overflow=hidden;rotatable=0;points=[[0,0.5],[1,0.5]];portConstraint=eastwest;whiteSpace=wrap;html=1;" parent="Zf2B7JCEk5brwvJHuypl-1" vertex="1">
          <mxGeometry y="78" width="140" height="26" as="geometry" />
        </mxCell>
        <mxCell id="Zf2B7JCEk5brwvJHuypl-7" value="+ Level" style="text;strokeColor=none;fillColor=none;align=left;verticalAlign=top;spacingLeft=4;spacingRight=4;overflow=hidden;rotatable=0;points=[[0,0.5],[1,0.5]];portConstraint=eastwest;whiteSpace=wrap;html=1;" parent="Zf2B7JCEk5brwvJHuypl-1" vertex="1">
          <mxGeometry y="104" width="140" height="30" as="geometry" />
        </mxCell>
        <mxCell id="Zf2B7JCEk5brwvJHuypl-8" value="Project" style="swimlane;fontStyle=0;childLayout=stackLayout;horizontal=1;startSize=26;fillColor=none;horizontalStack=0;resizeParent=1;resizeParentMax=0;resizeLast=0;collapsible=1;marginBottom=0;whiteSpace=wrap;html=1;" parent="1" vertex="1">
          <mxGeometry x="250" y="610" width="140" height="78" as="geometry">
            <mxRectangle x="30" y="410" width="70" height="30" as="alternateBounds" />
          </mxGeometry>
        </mxCell>
        <mxCell id="Zf2B7JCEk5brwvJHuypl-9" value="+ Id" style="text;strokeColor=none;fillColor=none;align=left;verticalAlign=top;spacingLeft=4;spacingRight=4;overflow=hidden;rotatable=0;points=[[0,0.5],[1,0.5]];portConstraint=eastwest;whiteSpace=wrap;html=1;" parent="Zf2B7JCEk5brwvJHuypl-8" vertex="1">
          <mxGeometry y="26" width="140" height="26" as="geometry" />
        </mxCell>
        <mxCell id="Zf2B7JCEk5brwvJHuypl-10" value="+ Name" style="text;strokeColor=none;fillColor=none;align=left;verticalAlign=top;spacingLeft=4;spacingRight=4;overflow=hidden;rotatable=0;points=[[0,0.5],[1,0.5]];portConstraint=eastwest;whiteSpace=wrap;html=1;" parent="Zf2B7JCEk5brwvJHuypl-8" vertex="1">
          <mxGeometry y="52" width="140" height="26" as="geometry" />
        </mxCell>
        <mxCell id="Zf2B7JCEk5brwvJHuypl-13" value="ProjectMember" style="swimlane;fontStyle=0;childLayout=stackLayout;horizontal=1;startSize=26;fillColor=none;horizontalStack=0;resizeParent=1;resizeParentMax=0;resizeLast=0;collapsible=1;marginBottom=0;whiteSpace=wrap;html=1;" parent="1" vertex="1">
          <mxGeometry x="515" y="610" width="140" height="104" as="geometry">
            <mxRectangle x="30" y="410" width="70" height="30" as="alternateBounds" />
          </mxGeometry>
        </mxCell>
        <mxCell id="Zf2B7JCEk5brwvJHuypl-14" value="+ UserId" style="text;strokeColor=none;fillColor=none;align=left;verticalAlign=top;spacingLeft=4;spacingRight=4;overflow=hidden;rotatable=0;points=[[0,0.5],[1,0.5]];portConstraint=eastwest;whiteSpace=wrap;html=1;" parent="Zf2B7JCEk5brwvJHuypl-13" vertex="1">
          <mxGeometry y="26" width="140" height="26" as="geometry" />
        </mxCell>
        <mxCell id="Zf2B7JCEk5brwvJHuypl-15" value="+ ProjectId" style="text;strokeColor=none;fillColor=none;align=left;verticalAlign=top;spacingLeft=4;spacingRight=4;overflow=hidden;rotatable=0;points=[[0,0.5],[1,0.5]];portConstraint=eastwest;whiteSpace=wrap;html=1;" parent="Zf2B7JCEk5brwvJHuypl-13" vertex="1">
          <mxGeometry y="52" width="140" height="26" as="geometry" />
        </mxCell>
        <mxCell id="Zf2B7JCEk5brwvJHuypl-16" value="+ Status" style="text;strokeColor=none;fillColor=none;align=left;verticalAlign=top;spacingLeft=4;spacingRight=4;overflow=hidden;rotatable=0;points=[[0,0.5],[1,0.5]];portConstraint=eastwest;whiteSpace=wrap;html=1;" parent="Zf2B7JCEk5brwvJHuypl-13" vertex="1">
          <mxGeometry y="78" width="140" height="26" as="geometry" />
        </mxCell>
        <mxCell id="Zf2B7JCEk5brwvJHuypl-23" value="Record" style="swimlane;fontStyle=0;childLayout=stackLayout;horizontal=1;startSize=26;fillColor=none;horizontalStack=0;resizeParent=1;resizeParentMax=0;resizeLast=0;collapsible=1;marginBottom=0;whiteSpace=wrap;html=1;" parent="1" vertex="1">
          <mxGeometry x="1090" y="610" width="140" height="208" as="geometry" />
        </mxCell>
        <mxCell id="Zf2B7JCEk5brwvJHuypl-24" value="+ Id" style="text;strokeColor=none;fillColor=none;align=left;verticalAlign=top;spacingLeft=4;spacingRight=4;overflow=hidden;rotatable=0;points=[[0,0.5],[1,0.5]];portConstraint=eastwest;whiteSpace=wrap;html=1;" parent="Zf2B7JCEk5brwvJHuypl-23" vertex="1">
          <mxGeometry y="26" width="140" height="26" as="geometry" />
        </mxCell>
        <mxCell id="Zf2B7JCEk5brwvJHuypl-25" value="+ UserId" style="text;strokeColor=none;fillColor=none;align=left;verticalAlign=top;spacingLeft=4;spacingRight=4;overflow=hidden;rotatable=0;points=[[0,0.5],[1,0.5]];portConstraint=eastwest;whiteSpace=wrap;html=1;" parent="Zf2B7JCEk5brwvJHuypl-23" vertex="1">
          <mxGeometry y="52" width="140" height="26" as="geometry" />
        </mxCell>
        <mxCell id="Zf2B7JCEk5brwvJHuypl-26" value="+ ProjectId" style="text;strokeColor=none;fillColor=none;align=left;verticalAlign=top;spacingLeft=4;spacingRight=4;overflow=hidden;rotatable=0;points=[[0,0.5],[1,0.5]];portConstraint=eastwest;whiteSpace=wrap;html=1;" parent="Zf2B7JCEk5brwvJHuypl-23" vertex="1">
          <mxGeometry y="78" width="140" height="26" as="geometry" />
        </mxCell>
        <mxCell id="Zf2B7JCEk5brwvJHuypl-27" value="+ CategoryId" style="text;strokeColor=none;fillColor=none;align=left;verticalAlign=top;spacingLeft=4;spacingRight=4;overflow=hidden;rotatable=0;points=[[0,0.5],[1,0.5]];portConstraint=eastwest;whiteSpace=wrap;html=1;" parent="Zf2B7JCEk5brwvJHuypl-23" vertex="1">
          <mxGeometry y="104" width="140" height="26" as="geometry" />
        </mxCell>
        <mxCell id="Zf2B7JCEk5brwvJHuypl-35" value="+ Sum" style="text;strokeColor=none;fillColor=none;align=left;verticalAlign=top;spacingLeft=4;spacingRight=4;overflow=hidden;rotatable=0;points=[[0,0.5],[1,0.5]];portConstraint=eastwest;whiteSpace=wrap;html=1;" parent="Zf2B7JCEk5brwvJHuypl-23" vertex="1">
          <mxGeometry y="130" width="140" height="26" as="geometry" />
        </mxCell>
        <mxCell id="Zf2B7JCEk5brwvJHuypl-28" value="+ Date" style="text;strokeColor=none;fillColor=none;align=left;verticalAlign=top;spacingLeft=4;spacingRight=4;overflow=hidden;rotatable=0;points=[[0,0.5],[1,0.5]];portConstraint=eastwest;whiteSpace=wrap;html=1;" parent="Zf2B7JCEk5brwvJHuypl-23" vertex="1">
          <mxGeometry y="156" width="140" height="26" as="geometry" />
        </mxCell>
        <mxCell id="Zf2B7JCEk5brwvJHuypl-29" value="+ Note" style="text;strokeColor=none;fillColor=none;align=left;verticalAlign=top;spacingLeft=4;spacingRight=4;overflow=hidden;rotatable=0;points=[[0,0.5],[1,0.5]];portConstraint=eastwest;whiteSpace=wrap;html=1;" parent="Zf2B7JCEk5brwvJHuypl-23" vertex="1">
          <mxGeometry y="182" width="140" height="26" as="geometry" />
        </mxCell>
        <mxCell id="Zf2B7JCEk5brwvJHuypl-30" value="Category" style="swimlane;fontStyle=0;childLayout=stackLayout;horizontal=1;startSize=26;fillColor=none;horizontalStack=0;resizeParent=1;resizeParentMax=0;resizeLast=0;collapsible=1;marginBottom=0;whiteSpace=wrap;html=1;" parent="1" vertex="1">
          <mxGeometry x="805" y="610" width="140" height="104" as="geometry" />
        </mxCell>
        <mxCell id="Zf2B7JCEk5brwvJHuypl-31" value="+ Id" style="text;strokeColor=none;fillColor=none;align=left;verticalAlign=top;spacingLeft=4;spacingRight=4;overflow=hidden;rotatable=0;points=[[0,0.5],[1,0.5]];portConstraint=eastwest;whiteSpace=wrap;html=1;" parent="Zf2B7JCEk5brwvJHuypl-30" vertex="1">
          <mxGeometry y="26" width="140" height="26" as="geometry" />
        </mxCell>
        <mxCell id="Zf2B7JCEk5brwvJHuypl-32" value="+ ProjectId" style="text;strokeColor=none;fillColor=none;align=left;verticalAlign=top;spacingLeft=4;spacingRight=4;overflow=hidden;rotatable=0;points=[[0,0.5],[1,0.5]];portConstraint=eastwest;whiteSpace=wrap;html=1;" parent="Zf2B7JCEk5brwvJHuypl-30" vertex="1">
          <mxGeometry y="52" width="140" height="26" as="geometry" />
        </mxCell>
        <mxCell id="Zf2B7JCEk5brwvJHuypl-33" value="+ Name" style="text;strokeColor=none;fillColor=none;align=left;verticalAlign=top;spacingLeft=4;spacingRight=4;overflow=hidden;rotatable=0;points=[[0,0.5],[1,0.5]];portConstraint=eastwest;whiteSpace=wrap;html=1;" parent="Zf2B7JCEk5brwvJHuypl-30" vertex="1">
          <mxGeometry y="78" width="140" height="26" as="geometry" />
        </mxCell>
        <mxCell id="Zf2B7JCEk5brwvJHuypl-36" value="UserRepository" style="swimlane;fontStyle=0;childLayout=stackLayout;horizontal=1;startSize=26;fillColor=none;horizontalStack=0;resizeParent=1;resizeParentMax=0;resizeLast=0;collapsible=1;marginBottom=0;whiteSpace=wrap;html=1;" parent="1" vertex="1">
          <mxGeometry x="40" y="330" width="140" height="156" as="geometry" />
        </mxCell>
        <mxCell id="6UyNxyT5E2USjWL4Qul_-6" value="+ GetByIdAsync()" style="text;strokeColor=none;fillColor=none;align=left;verticalAlign=top;spacingLeft=4;spacingRight=4;overflow=hidden;rotatable=0;points=[[0,0.5],[1,0.5]];portConstraint=eastwest;whiteSpace=wrap;html=1;" parent="Zf2B7JCEk5brwvJHuypl-36" vertex="1">
          <mxGeometry y="26" width="140" height="26" as="geometry" />
        </mxCell>
        <mxCell id="6UyNxyT5E2USjWL4Qul_-7" value="+ AddAsync()" style="text;strokeColor=none;fillColor=none;align=left;verticalAlign=top;spacingLeft=4;spacingRight=4;overflow=hidden;rotatable=0;points=[[0,0.5],[1,0.5]];portConstraint=eastwest;whiteSpace=wrap;html=1;" parent="Zf2B7JCEk5brwvJHuypl-36" vertex="1">
          <mxGeometry y="52" width="140" height="26" as="geometry" />
        </mxCell>
        <mxCell id="6UyNxyT5E2USjWL4Qul_-8" value="+ UpdateAsync()&lt;div&gt;&lt;br&gt;&lt;/div&gt;" style="text;strokeColor=none;fillColor=none;align=left;verticalAlign=top;spacingLeft=4;spacingRight=4;overflow=hidden;rotatable=0;points=[[0,0.5],[1,0.5]];portConstraint=eastwest;whiteSpace=wrap;html=1;" parent="Zf2B7JCEk5brwvJHuypl-36" vertex="1">
          <mxGeometry y="78" width="140" height="26" as="geometry" />
        </mxCell>
        <mxCell id="6UyNxyT5E2USjWL4Qul_-9" value="+ RemoveAsync()&lt;div&gt;&lt;br&gt;&lt;/div&gt;" style="text;strokeColor=none;fillColor=none;align=left;verticalAlign=top;spacingLeft=4;spacingRight=4;overflow=hidden;rotatable=0;points=[[0,0.5],[1,0.5]];portConstraint=eastwest;whiteSpace=wrap;html=1;" parent="Zf2B7JCEk5brwvJHuypl-36" vertex="1">
          <mxGeometry y="104" width="140" height="26" as="geometry" />
        </mxCell>
        <mxCell id="Zf2B7JCEk5brwvJHuypl-40" value="+ GetByLoginAsync()&lt;div&gt;&lt;br&gt;&lt;/div&gt;" style="text;strokeColor=none;fillColor=none;align=left;verticalAlign=top;spacingLeft=4;spacingRight=4;overflow=hidden;rotatable=0;points=[[0,0.5],[1,0.5]];portConstraint=eastwest;whiteSpace=wrap;html=1;" parent="Zf2B7JCEk5brwvJHuypl-36" vertex="1">
          <mxGeometry y="130" width="140" height="26" as="geometry" />
        </mxCell>
        <mxCell id="Zf2B7JCEk5brwvJHuypl-43" value="ProjectRepository" style="swimlane;fontStyle=0;childLayout=stackLayout;horizontal=1;startSize=26;fillColor=none;horizontalStack=0;resizeParent=1;resizeParentMax=0;resizeLast=0;collapsible=1;marginBottom=0;whiteSpace=wrap;html=1;" parent="1" vertex="1">
          <mxGeometry x="400" y="330" width="140" height="130" as="geometry" />
        </mxCell>
        <mxCell id="6UyNxyT5E2USjWL4Qul_-15" value="+ GetByIdAsync()" style="text;strokeColor=none;fillColor=none;align=left;verticalAlign=top;spacingLeft=4;spacingRight=4;overflow=hidden;rotatable=0;points=[[0,0.5],[1,0.5]];portConstraint=eastwest;whiteSpace=wrap;html=1;" parent="Zf2B7JCEk5brwvJHuypl-43" vertex="1">
          <mxGeometry y="26" width="140" height="26" as="geometry" />
        </mxCell>
        <mxCell id="6UyNxyT5E2USjWL4Qul_-16" value="+ AddAsync()" style="text;strokeColor=none;fillColor=none;align=left;verticalAlign=top;spacingLeft=4;spacingRight=4;overflow=hidden;rotatable=0;points=[[0,0.5],[1,0.5]];portConstraint=eastwest;whiteSpace=wrap;html=1;" parent="Zf2B7JCEk5brwvJHuypl-43" vertex="1">
          <mxGeometry y="52" width="140" height="26" as="geometry" />
        </mxCell>
        <mxCell id="6UyNxyT5E2USjWL4Qul_-18" value="+ UpdateAsync()&lt;div&gt;&lt;br&gt;&lt;/div&gt;" style="text;strokeColor=none;fillColor=none;align=left;verticalAlign=top;spacingLeft=4;spacingRight=4;overflow=hidden;rotatable=0;points=[[0,0.5],[1,0.5]];portConstraint=eastwest;whiteSpace=wrap;html=1;" parent="Zf2B7JCEk5brwvJHuypl-43" vertex="1">
          <mxGeometry y="78" width="140" height="26" as="geometry" />
        </mxCell>
        <mxCell id="6UyNxyT5E2USjWL4Qul_-17" value="+ RemoveAsync()&lt;div&gt;&lt;br&gt;&lt;/div&gt;" style="text;strokeColor=none;fillColor=none;align=left;verticalAlign=top;spacingLeft=4;spacingRight=4;overflow=hidden;rotatable=0;points=[[0,0.5],[1,0.5]];portConstraint=eastwest;whiteSpace=wrap;html=1;" parent="Zf2B7JCEk5brwvJHuypl-43" vertex="1">
          <mxGeometry y="104" width="140" height="26" as="geometry" />
        </mxCell>
        <mxCell id="Zf2B7JCEk5brwvJHuypl-50" value="ProjecMembertRepository" style="swimlane;fontStyle=0;childLayout=stackLayout;horizontal=1;startSize=26;fillColor=none;horizontalStack=0;resizeParent=1;resizeParentMax=0;resizeLast=0;collapsible=1;marginBottom=0;whiteSpace=wrap;html=1;" parent="1" vertex="1">
          <mxGeometry x="570" y="305" width="210" height="206" as="geometry" />
        </mxCell>
        <mxCell id="6UyNxyT5E2USjWL4Qul_-22" value="+ GetRangeByUserIdAsync()" style="text;strokeColor=none;fillColor=none;align=left;verticalAlign=top;spacingLeft=4;spacingRight=4;overflow=hidden;rotatable=0;points=[[0,0.5],[1,0.5]];portConstraint=eastwest;whiteSpace=wrap;html=1;" parent="Zf2B7JCEk5brwvJHuypl-50" vertex="1">
          <mxGeometry y="26" width="210" height="26" as="geometry" />
        </mxCell>
        <mxCell id="6UyNxyT5E2USjWL4Qul_-23" value="+ UpdateAsync()&lt;div&gt;&lt;br&gt;&lt;/div&gt;" style="text;strokeColor=none;fillColor=none;align=left;verticalAlign=top;spacingLeft=4;spacingRight=4;overflow=hidden;rotatable=0;points=[[0,0.5],[1,0.5]];portConstraint=eastwest;whiteSpace=wrap;html=1;" parent="Zf2B7JCEk5brwvJHuypl-50" vertex="1">
          <mxGeometry y="52" width="210" height="24" as="geometry" />
        </mxCell>
        <mxCell id="6UyNxyT5E2USjWL4Qul_-24" value="+ RemoveAsync()&lt;div&gt;&lt;br&gt;&lt;/div&gt;" style="text;strokeColor=none;fillColor=none;align=left;verticalAlign=top;spacingLeft=4;spacingRight=4;overflow=hidden;rotatable=0;points=[[0,0.5],[1,0.5]];portConstraint=eastwest;whiteSpace=wrap;html=1;" parent="Zf2B7JCEk5brwvJHuypl-50" vertex="1">
          <mxGeometry y="76" width="210" height="26" as="geometry" />
        </mxCell>
        <mxCell id="6UyNxyT5E2USjWL4Qul_-25" value="+ AddAsync()" style="text;strokeColor=none;fillColor=none;align=left;verticalAlign=top;spacingLeft=4;spacingRight=4;overflow=hidden;rotatable=0;points=[[0,0.5],[1,0.5]];portConstraint=eastwest;whiteSpace=wrap;html=1;" parent="Zf2B7JCEk5brwvJHuypl-50" vertex="1">
          <mxGeometry y="102" width="210" height="26" as="geometry" />
        </mxCell>
        <mxCell id="6UyNxyT5E2USjWL4Qul_-28" value="+ GetByIdAsync()&lt;div&gt;&lt;br&gt;&lt;/div&gt;" style="text;strokeColor=none;fillColor=none;align=left;verticalAlign=top;spacingLeft=4;spacingRight=4;overflow=hidden;rotatable=0;points=[[0,0.5],[1,0.5]];portConstraint=eastwest;whiteSpace=wrap;html=1;" parent="Zf2B7JCEk5brwvJHuypl-50" vertex="1">
          <mxGeometry y="128" width="210" height="26" as="geometry" />
        </mxCell>
        <mxCell id="6UyNxyT5E2USjWL4Qul_-27" value="+ CountRowsAsync()" style="text;strokeColor=none;fillColor=none;align=left;verticalAlign=top;spacingLeft=4;spacingRight=4;overflow=hidden;rotatable=0;points=[[0,0.5],[1,0.5]];portConstraint=eastwest;whiteSpace=wrap;html=1;" parent="Zf2B7JCEk5brwvJHuypl-50" vertex="1">
          <mxGeometry y="154" width="210" height="26" as="geometry" />
        </mxCell>
        <mxCell id="6UyNxyT5E2USjWL4Qul_-26" value="+ GetRangeByProjectIdAsync()" style="text;strokeColor=none;fillColor=none;align=left;verticalAlign=top;spacingLeft=4;spacingRight=4;overflow=hidden;rotatable=0;points=[[0,0.5],[1,0.5]];portConstraint=eastwest;whiteSpace=wrap;html=1;" parent="Zf2B7JCEk5brwvJHuypl-50" vertex="1">
          <mxGeometry y="180" width="210" height="26" as="geometry" />
        </mxCell>
        <mxCell id="Zf2B7JCEk5brwvJHuypl-69" value="CategoryRepository" style="swimlane;fontStyle=0;childLayout=stackLayout;horizontal=1;startSize=26;fillColor=none;horizontalStack=0;resizeParent=1;resizeParentMax=0;resizeLast=0;collapsible=1;marginBottom=0;whiteSpace=wrap;html=1;" parent="1" vertex="1">
          <mxGeometry x="830" y="330" width="190" height="182" as="geometry" />
        </mxCell>
        <mxCell id="6UyNxyT5E2USjWL4Qul_-32" value="+ GetRangeByProjectIdAsync()&lt;div&gt;&lt;br&gt;&lt;/div&gt;" style="text;strokeColor=none;fillColor=none;align=left;verticalAlign=top;spacingLeft=4;spacingRight=4;overflow=hidden;rotatable=0;points=[[0,0.5],[1,0.5]];portConstraint=eastwest;whiteSpace=wrap;html=1;" parent="Zf2B7JCEk5brwvJHuypl-69" vertex="1">
          <mxGeometry y="26" width="190" height="26" as="geometry" />
        </mxCell>
        <mxCell id="6UyNxyT5E2USjWL4Qul_-33" value="+ AddRangeAsync()" style="text;strokeColor=none;fillColor=none;align=left;verticalAlign=top;spacingLeft=4;spacingRight=4;overflow=hidden;rotatable=0;points=[[0,0.5],[1,0.5]];portConstraint=eastwest;whiteSpace=wrap;html=1;" parent="Zf2B7JCEk5brwvJHuypl-69" vertex="1">
          <mxGeometry y="52" width="190" height="26" as="geometry" />
        </mxCell>
        <mxCell id="6UyNxyT5E2USjWL4Qul_-34" value="+ GetByIdAsync()" style="text;strokeColor=none;fillColor=none;align=left;verticalAlign=top;spacingLeft=4;spacingRight=4;overflow=hidden;rotatable=0;points=[[0,0.5],[1,0.5]];portConstraint=eastwest;whiteSpace=wrap;html=1;" parent="Zf2B7JCEk5brwvJHuypl-69" vertex="1">
          <mxGeometry y="78" width="190" height="26" as="geometry" />
        </mxCell>
        <mxCell id="6UyNxyT5E2USjWL4Qul_-37" value="+ UpdateAsync()&lt;div&gt;&lt;br&gt;&lt;/div&gt;" style="text;strokeColor=none;fillColor=none;align=left;verticalAlign=top;spacingLeft=4;spacingRight=4;overflow=hidden;rotatable=0;points=[[0,0.5],[1,0.5]];portConstraint=eastwest;whiteSpace=wrap;html=1;" parent="Zf2B7JCEk5brwvJHuypl-69" vertex="1">
          <mxGeometry y="104" width="190" height="26" as="geometry" />
        </mxCell>
        <mxCell id="6UyNxyT5E2USjWL4Qul_-36" value="+ RemoveAsync()&lt;div&gt;&lt;br&gt;&lt;/div&gt;" style="text;strokeColor=none;fillColor=none;align=left;verticalAlign=top;spacingLeft=4;spacingRight=4;overflow=hidden;rotatable=0;points=[[0,0.5],[1,0.5]];portConstraint=eastwest;whiteSpace=wrap;html=1;" parent="Zf2B7JCEk5brwvJHuypl-69" vertex="1">
          <mxGeometry y="130" width="190" height="26" as="geometry" />
        </mxCell>
        <mxCell id="6UyNxyT5E2USjWL4Qul_-35" value="+ AddAsync()" style="text;strokeColor=none;fillColor=none;align=left;verticalAlign=top;spacingLeft=4;spacingRight=4;overflow=hidden;rotatable=0;points=[[0,0.5],[1,0.5]];portConstraint=eastwest;whiteSpace=wrap;html=1;" parent="Zf2B7JCEk5brwvJHuypl-69" vertex="1">
          <mxGeometry y="156" width="190" height="26" as="geometry" />
        </mxCell>
        <mxCell id="Zf2B7JCEk5brwvJHuypl-76" value="RecordRepository" style="swimlane;fontStyle=0;childLayout=stackLayout;horizontal=1;startSize=26;fillColor=none;horizontalStack=0;resizeParent=1;resizeParentMax=0;resizeLast=0;collapsible=1;marginBottom=0;whiteSpace=wrap;html=1;" parent="1" vertex="1">
          <mxGeometry x="1060" y="330" width="200" height="156" as="geometry" />
        </mxCell>
        <mxCell id="6UyNxyT5E2USjWL4Qul_-41" value="+ GetByIdAsync()&lt;div&gt;&lt;br&gt;&lt;/div&gt;" style="text;strokeColor=none;fillColor=none;align=left;verticalAlign=top;spacingLeft=4;spacingRight=4;overflow=hidden;rotatable=0;points=[[0,0.5],[1,0.5]];portConstraint=eastwest;whiteSpace=wrap;html=1;" parent="Zf2B7JCEk5brwvJHuypl-76" vertex="1">
          <mxGeometry y="26" width="200" height="26" as="geometry" />
        </mxCell>
        <mxCell id="6UyNxyT5E2USjWL4Qul_-42" value="+ GetFilteredAsyncr()" style="text;strokeColor=none;fillColor=none;align=left;verticalAlign=top;spacingLeft=4;spacingRight=4;overflow=hidden;rotatable=0;points=[[0,0.5],[1,0.5]];portConstraint=eastwest;whiteSpace=wrap;html=1;" parent="Zf2B7JCEk5brwvJHuypl-76" vertex="1">
          <mxGeometry y="52" width="200" height="26" as="geometry" />
        </mxCell>
        <mxCell id="6UyNxyT5E2USjWL4Qul_-43" value="+ AddAsync()" style="text;strokeColor=none;fillColor=none;align=left;verticalAlign=top;spacingLeft=4;spacingRight=4;overflow=hidden;rotatable=0;points=[[0,0.5],[1,0.5]];portConstraint=eastwest;whiteSpace=wrap;html=1;" parent="Zf2B7JCEk5brwvJHuypl-76" vertex="1">
          <mxGeometry y="78" width="200" height="26" as="geometry" />
        </mxCell>
        <mxCell id="6UyNxyT5E2USjWL4Qul_-45" value="+ RemoveAsync()&lt;div&gt;&lt;br&gt;&lt;/div&gt;" style="text;strokeColor=none;fillColor=none;align=left;verticalAlign=top;spacingLeft=4;spacingRight=4;overflow=hidden;rotatable=0;points=[[0,0.5],[1,0.5]];portConstraint=eastwest;whiteSpace=wrap;html=1;" parent="Zf2B7JCEk5brwvJHuypl-76" vertex="1">
          <mxGeometry y="104" width="200" height="26" as="geometry" />
        </mxCell>
        <mxCell id="6UyNxyT5E2USjWL4Qul_-44" value="+ UpdateAsync()&lt;div&gt;&lt;br&gt;&lt;/div&gt;" style="text;strokeColor=none;fillColor=none;align=left;verticalAlign=top;spacingLeft=4;spacingRight=4;overflow=hidden;rotatable=0;points=[[0,0.5],[1,0.5]];portConstraint=eastwest;whiteSpace=wrap;html=1;" parent="Zf2B7JCEk5brwvJHuypl-76" vertex="1">
          <mxGeometry y="130" width="200" height="26" as="geometry" />
        </mxCell>
        <mxCell id="Zf2B7JCEk5brwvJHuypl-84" value="&amp;lt;&amp;lt;Interface&amp;gt;&amp;gt;&lt;div&gt;IUserRepository&lt;/div&gt;" style="swimlane;fontStyle=0;childLayout=stackLayout;horizontal=1;startSize=40;fillColor=none;horizontalStack=0;resizeParent=1;resizeParentMax=0;resizeLast=0;collapsible=1;marginBottom=0;whiteSpace=wrap;html=1;" parent="1" vertex="1">
          <mxGeometry x="40" y="-40" width="140" height="170" as="geometry" />
        </mxCell>
        <mxCell id="Zf2B7JCEk5brwvJHuypl-85" value="+ GetByIdAsync()" style="text;strokeColor=none;fillColor=none;align=left;verticalAlign=top;spacingLeft=4;spacingRight=4;overflow=hidden;rotatable=0;points=[[0,0.5],[1,0.5]];portConstraint=eastwest;whiteSpace=wrap;html=1;" parent="Zf2B7JCEk5brwvJHuypl-84" vertex="1">
          <mxGeometry y="40" width="140" height="26" as="geometry" />
        </mxCell>
        <mxCell id="Zf2B7JCEk5brwvJHuypl-86" value="+ AddAsync()" style="text;strokeColor=none;fillColor=none;align=left;verticalAlign=top;spacingLeft=4;spacingRight=4;overflow=hidden;rotatable=0;points=[[0,0.5],[1,0.5]];portConstraint=eastwest;whiteSpace=wrap;html=1;" parent="Zf2B7JCEk5brwvJHuypl-84" vertex="1">
          <mxGeometry y="66" width="140" height="26" as="geometry" />
        </mxCell>
        <mxCell id="Zf2B7JCEk5brwvJHuypl-87" value="+ UpdateAsync()&lt;div&gt;&lt;br&gt;&lt;/div&gt;" style="text;strokeColor=none;fillColor=none;align=left;verticalAlign=top;spacingLeft=4;spacingRight=4;overflow=hidden;rotatable=0;points=[[0,0.5],[1,0.5]];portConstraint=eastwest;whiteSpace=wrap;html=1;" parent="Zf2B7JCEk5brwvJHuypl-84" vertex="1">
          <mxGeometry y="92" width="140" height="26" as="geometry" />
        </mxCell>
        <mxCell id="Zf2B7JCEk5brwvJHuypl-88" value="+ RemoveAsync()&lt;div&gt;&lt;br&gt;&lt;/div&gt;" style="text;strokeColor=none;fillColor=none;align=left;verticalAlign=top;spacingLeft=4;spacingRight=4;overflow=hidden;rotatable=0;points=[[0,0.5],[1,0.5]];portConstraint=eastwest;whiteSpace=wrap;html=1;" parent="Zf2B7JCEk5brwvJHuypl-84" vertex="1">
          <mxGeometry y="118" width="140" height="26" as="geometry" />
        </mxCell>
        <mxCell id="Zf2B7JCEk5brwvJHuypl-89" value="+ GetByLoginAsync()&lt;div&gt;&lt;br&gt;&lt;/div&gt;" style="text;strokeColor=none;fillColor=none;align=left;verticalAlign=top;spacingLeft=4;spacingRight=4;overflow=hidden;rotatable=0;points=[[0,0.5],[1,0.5]];portConstraint=eastwest;whiteSpace=wrap;html=1;" parent="Zf2B7JCEk5brwvJHuypl-84" vertex="1">
          <mxGeometry y="144" width="140" height="26" as="geometry" />
        </mxCell>
        <mxCell id="Zf2B7JCEk5brwvJHuypl-90" value="&amp;lt;&amp;lt;Interface&amp;gt;&amp;gt;&lt;div&gt;IProjectRepository&lt;/div&gt;" style="swimlane;fontStyle=0;childLayout=stackLayout;horizontal=1;startSize=40;fillColor=none;horizontalStack=0;resizeParent=1;resizeParentMax=0;resizeLast=0;collapsible=1;marginBottom=0;whiteSpace=wrap;html=1;" parent="1" vertex="1">
          <mxGeometry x="400" y="-40" width="140" height="144" as="geometry" />
        </mxCell>
        <mxCell id="Zf2B7JCEk5brwvJHuypl-91" value="+ GetByIdAsync()" style="text;strokeColor=none;fillColor=none;align=left;verticalAlign=top;spacingLeft=4;spacingRight=4;overflow=hidden;rotatable=0;points=[[0,0.5],[1,0.5]];portConstraint=eastwest;whiteSpace=wrap;html=1;" parent="Zf2B7JCEk5brwvJHuypl-90" vertex="1">
          <mxGeometry y="40" width="140" height="26" as="geometry" />
        </mxCell>
        <mxCell id="6UyNxyT5E2USjWL4Qul_-11" value="+ AddAsync()" style="text;strokeColor=none;fillColor=none;align=left;verticalAlign=top;spacingLeft=4;spacingRight=4;overflow=hidden;rotatable=0;points=[[0,0.5],[1,0.5]];portConstraint=eastwest;whiteSpace=wrap;html=1;" parent="Zf2B7JCEk5brwvJHuypl-90" vertex="1">
          <mxGeometry y="66" width="140" height="26" as="geometry" />
        </mxCell>
        <mxCell id="6UyNxyT5E2USjWL4Qul_-13" value="+ RemoveAsync()&lt;div&gt;&lt;br&gt;&lt;/div&gt;" style="text;strokeColor=none;fillColor=none;align=left;verticalAlign=top;spacingLeft=4;spacingRight=4;overflow=hidden;rotatable=0;points=[[0,0.5],[1,0.5]];portConstraint=eastwest;whiteSpace=wrap;html=1;" parent="Zf2B7JCEk5brwvJHuypl-90" vertex="1">
          <mxGeometry y="92" width="140" height="26" as="geometry" />
        </mxCell>
        <mxCell id="6UyNxyT5E2USjWL4Qul_-12" value="+ UpdateAsync()&lt;div&gt;&lt;br&gt;&lt;/div&gt;" style="text;strokeColor=none;fillColor=none;align=left;verticalAlign=top;spacingLeft=4;spacingRight=4;overflow=hidden;rotatable=0;points=[[0,0.5],[1,0.5]];portConstraint=eastwest;whiteSpace=wrap;html=1;" parent="Zf2B7JCEk5brwvJHuypl-90" vertex="1">
          <mxGeometry y="118" width="140" height="26" as="geometry" />
        </mxCell>
        <mxCell id="Zf2B7JCEk5brwvJHuypl-95" value="&amp;lt;&amp;lt;Interface&amp;gt;&amp;gt;&lt;div&gt;IProjecMembertRepository&lt;/div&gt;" style="swimlane;fontStyle=0;childLayout=stackLayout;horizontal=1;startSize=40;fillColor=none;horizontalStack=0;resizeParent=1;resizeParentMax=0;resizeLast=0;collapsible=1;marginBottom=0;whiteSpace=wrap;html=1;" parent="1" vertex="1">
          <mxGeometry x="570" y="-40" width="210" height="220" as="geometry" />
        </mxCell>
        <mxCell id="Zf2B7JCEk5brwvJHuypl-96" value="+ GetRangeByUserIdAsync()" style="text;strokeColor=none;fillColor=none;align=left;verticalAlign=top;spacingLeft=4;spacingRight=4;overflow=hidden;rotatable=0;points=[[0,0.5],[1,0.5]];portConstraint=eastwest;whiteSpace=wrap;html=1;" parent="Zf2B7JCEk5brwvJHuypl-95" vertex="1">
          <mxGeometry y="40" width="210" height="26" as="geometry" />
        </mxCell>
        <mxCell id="6UyNxyT5E2USjWL4Qul_-21" value="+ UpdateAsync()&lt;div&gt;&lt;br&gt;&lt;/div&gt;" style="text;strokeColor=none;fillColor=none;align=left;verticalAlign=top;spacingLeft=4;spacingRight=4;overflow=hidden;rotatable=0;points=[[0,0.5],[1,0.5]];portConstraint=eastwest;whiteSpace=wrap;html=1;" parent="Zf2B7JCEk5brwvJHuypl-95" vertex="1">
          <mxGeometry y="66" width="210" height="24" as="geometry" />
        </mxCell>
        <mxCell id="6UyNxyT5E2USjWL4Qul_-20" value="+ RemoveAsync()&lt;div&gt;&lt;br&gt;&lt;/div&gt;" style="text;strokeColor=none;fillColor=none;align=left;verticalAlign=top;spacingLeft=4;spacingRight=4;overflow=hidden;rotatable=0;points=[[0,0.5],[1,0.5]];portConstraint=eastwest;whiteSpace=wrap;html=1;" parent="Zf2B7JCEk5brwvJHuypl-95" vertex="1">
          <mxGeometry y="90" width="210" height="26" as="geometry" />
        </mxCell>
        <mxCell id="6UyNxyT5E2USjWL4Qul_-19" value="+ AddAsync()" style="text;strokeColor=none;fillColor=none;align=left;verticalAlign=top;spacingLeft=4;spacingRight=4;overflow=hidden;rotatable=0;points=[[0,0.5],[1,0.5]];portConstraint=eastwest;whiteSpace=wrap;html=1;" parent="Zf2B7JCEk5brwvJHuypl-95" vertex="1">
          <mxGeometry y="116" width="210" height="26" as="geometry" />
        </mxCell>
        <mxCell id="Zf2B7JCEk5brwvJHuypl-97" value="+ GetRangeByProjectIdAsync()" style="text;strokeColor=none;fillColor=none;align=left;verticalAlign=top;spacingLeft=4;spacingRight=4;overflow=hidden;rotatable=0;points=[[0,0.5],[1,0.5]];portConstraint=eastwest;whiteSpace=wrap;html=1;" parent="Zf2B7JCEk5brwvJHuypl-95" vertex="1">
          <mxGeometry y="142" width="210" height="26" as="geometry" />
        </mxCell>
        <mxCell id="Zf2B7JCEk5brwvJHuypl-98" value="+ CountRowsAsync()" style="text;strokeColor=none;fillColor=none;align=left;verticalAlign=top;spacingLeft=4;spacingRight=4;overflow=hidden;rotatable=0;points=[[0,0.5],[1,0.5]];portConstraint=eastwest;whiteSpace=wrap;html=1;" parent="Zf2B7JCEk5brwvJHuypl-95" vertex="1">
          <mxGeometry y="168" width="210" height="26" as="geometry" />
        </mxCell>
        <mxCell id="Zf2B7JCEk5brwvJHuypl-100" value="+ GetByIdAsync()&lt;div&gt;&lt;br&gt;&lt;/div&gt;" style="text;strokeColor=none;fillColor=none;align=left;verticalAlign=top;spacingLeft=4;spacingRight=4;overflow=hidden;rotatable=0;points=[[0,0.5],[1,0.5]];portConstraint=eastwest;whiteSpace=wrap;html=1;" parent="Zf2B7JCEk5brwvJHuypl-95" vertex="1">
          <mxGeometry y="194" width="210" height="26" as="geometry" />
        </mxCell>
        <mxCell id="Zf2B7JCEk5brwvJHuypl-101" value="&amp;lt;&amp;lt;Interface&amp;gt;&amp;gt;&lt;div&gt;ICategoryRepository&lt;/div&gt;" style="swimlane;fontStyle=0;childLayout=stackLayout;horizontal=1;startSize=40;fillColor=none;horizontalStack=0;resizeParent=1;resizeParentMax=0;resizeLast=0;collapsible=1;marginBottom=0;whiteSpace=wrap;html=1;" parent="1" vertex="1">
          <mxGeometry x="827" y="-40" width="190" height="196" as="geometry" />
        </mxCell>
        <mxCell id="Zf2B7JCEk5brwvJHuypl-102" value="+ GetRangeByProjectIdAsync()&lt;div&gt;&lt;br&gt;&lt;/div&gt;" style="text;strokeColor=none;fillColor=none;align=left;verticalAlign=top;spacingLeft=4;spacingRight=4;overflow=hidden;rotatable=0;points=[[0,0.5],[1,0.5]];portConstraint=eastwest;whiteSpace=wrap;html=1;" parent="Zf2B7JCEk5brwvJHuypl-101" vertex="1">
          <mxGeometry y="40" width="190" height="26" as="geometry" />
        </mxCell>
        <mxCell id="Zf2B7JCEk5brwvJHuypl-103" value="+ AddRangeAsync()" style="text;strokeColor=none;fillColor=none;align=left;verticalAlign=top;spacingLeft=4;spacingRight=4;overflow=hidden;rotatable=0;points=[[0,0.5],[1,0.5]];portConstraint=eastwest;whiteSpace=wrap;html=1;" parent="Zf2B7JCEk5brwvJHuypl-101" vertex="1">
          <mxGeometry y="66" width="190" height="26" as="geometry" />
        </mxCell>
        <mxCell id="Zf2B7JCEk5brwvJHuypl-104" value="+ GetByIdAsync()" style="text;strokeColor=none;fillColor=none;align=left;verticalAlign=top;spacingLeft=4;spacingRight=4;overflow=hidden;rotatable=0;points=[[0,0.5],[1,0.5]];portConstraint=eastwest;whiteSpace=wrap;html=1;" parent="Zf2B7JCEk5brwvJHuypl-101" vertex="1">
          <mxGeometry y="92" width="190" height="26" as="geometry" />
        </mxCell>
        <mxCell id="6UyNxyT5E2USjWL4Qul_-29" value="+ AddAsync()" style="text;strokeColor=none;fillColor=none;align=left;verticalAlign=top;spacingLeft=4;spacingRight=4;overflow=hidden;rotatable=0;points=[[0,0.5],[1,0.5]];portConstraint=eastwest;whiteSpace=wrap;html=1;" parent="Zf2B7JCEk5brwvJHuypl-101" vertex="1">
          <mxGeometry y="118" width="190" height="26" as="geometry" />
        </mxCell>
        <mxCell id="6UyNxyT5E2USjWL4Qul_-30" value="+ RemoveAsync()&lt;div&gt;&lt;br&gt;&lt;/div&gt;" style="text;strokeColor=none;fillColor=none;align=left;verticalAlign=top;spacingLeft=4;spacingRight=4;overflow=hidden;rotatable=0;points=[[0,0.5],[1,0.5]];portConstraint=eastwest;whiteSpace=wrap;html=1;" parent="Zf2B7JCEk5brwvJHuypl-101" vertex="1">
          <mxGeometry y="144" width="190" height="26" as="geometry" />
        </mxCell>
        <mxCell id="6UyNxyT5E2USjWL4Qul_-31" value="+ UpdateAsync()&lt;div&gt;&lt;br&gt;&lt;/div&gt;" style="text;strokeColor=none;fillColor=none;align=left;verticalAlign=top;spacingLeft=4;spacingRight=4;overflow=hidden;rotatable=0;points=[[0,0.5],[1,0.5]];portConstraint=eastwest;whiteSpace=wrap;html=1;" parent="Zf2B7JCEk5brwvJHuypl-101" vertex="1">
          <mxGeometry y="170" width="190" height="26" as="geometry" />
        </mxCell>
        <mxCell id="Zf2B7JCEk5brwvJHuypl-107" value="&amp;lt;&amp;lt;Interface&amp;gt;&amp;gt;&lt;div&gt;IRecordRepository&lt;/div&gt;" style="swimlane;fontStyle=0;childLayout=stackLayout;horizontal=1;startSize=40;fillColor=none;horizontalStack=0;resizeParent=1;resizeParentMax=0;resizeLast=0;collapsible=1;marginBottom=0;whiteSpace=wrap;html=1;" parent="1" vertex="1">
          <mxGeometry x="1060" y="-40" width="200" height="170" as="geometry" />
        </mxCell>
        <mxCell id="Zf2B7JCEk5brwvJHuypl-108" value="+ GetByIdAsync()&lt;div&gt;&lt;br&gt;&lt;/div&gt;" style="text;strokeColor=none;fillColor=none;align=left;verticalAlign=top;spacingLeft=4;spacingRight=4;overflow=hidden;rotatable=0;points=[[0,0.5],[1,0.5]];portConstraint=eastwest;whiteSpace=wrap;html=1;" parent="Zf2B7JCEk5brwvJHuypl-107" vertex="1">
          <mxGeometry y="40" width="200" height="26" as="geometry" />
        </mxCell>
        <mxCell id="Zf2B7JCEk5brwvJHuypl-109" value="+ GetFilteredAsyncr()" style="text;strokeColor=none;fillColor=none;align=left;verticalAlign=top;spacingLeft=4;spacingRight=4;overflow=hidden;rotatable=0;points=[[0,0.5],[1,0.5]];portConstraint=eastwest;whiteSpace=wrap;html=1;" parent="Zf2B7JCEk5brwvJHuypl-107" vertex="1">
          <mxGeometry y="66" width="200" height="26" as="geometry" />
        </mxCell>
        <mxCell id="6UyNxyT5E2USjWL4Qul_-38" value="+ AddAsync()" style="text;strokeColor=none;fillColor=none;align=left;verticalAlign=top;spacingLeft=4;spacingRight=4;overflow=hidden;rotatable=0;points=[[0,0.5],[1,0.5]];portConstraint=eastwest;whiteSpace=wrap;html=1;" parent="Zf2B7JCEk5brwvJHuypl-107" vertex="1">
          <mxGeometry y="92" width="200" height="26" as="geometry" />
        </mxCell>
        <mxCell id="6UyNxyT5E2USjWL4Qul_-40" value="+ UpdateAsync()&lt;div&gt;&lt;br&gt;&lt;/div&gt;" style="text;strokeColor=none;fillColor=none;align=left;verticalAlign=top;spacingLeft=4;spacingRight=4;overflow=hidden;rotatable=0;points=[[0,0.5],[1,0.5]];portConstraint=eastwest;whiteSpace=wrap;html=1;" parent="Zf2B7JCEk5brwvJHuypl-107" vertex="1">
          <mxGeometry y="118" width="200" height="26" as="geometry" />
        </mxCell>
        <mxCell id="6UyNxyT5E2USjWL4Qul_-39" value="+ RemoveAsync()&lt;div&gt;&lt;br&gt;&lt;/div&gt;" style="text;strokeColor=none;fillColor=none;align=left;verticalAlign=top;spacingLeft=4;spacingRight=4;overflow=hidden;rotatable=0;points=[[0,0.5],[1,0.5]];portConstraint=eastwest;whiteSpace=wrap;html=1;" parent="Zf2B7JCEk5brwvJHuypl-107" vertex="1">
          <mxGeometry y="144" width="200" height="26" as="geometry" />
        </mxCell>
        <mxCell id="Zf2B7JCEk5brwvJHuypl-113" value="&amp;lt;&amp;lt;Interface&amp;gt;&amp;gt;&lt;div&gt;IUserService&lt;/div&gt;" style="swimlane;fontStyle=0;childLayout=stackLayout;horizontal=1;startSize=40;fillColor=none;horizontalStack=0;resizeParent=1;resizeParentMax=0;resizeLast=0;collapsible=1;marginBottom=0;whiteSpace=wrap;html=1;" parent="1" vertex="1">
          <mxGeometry x="35" y="-600" width="150" height="66" as="geometry" />
        </mxCell>
        <mxCell id="Zf2B7JCEk5brwvJHuypl-118" value="+ GetUserByLoginAsync()&lt;div&gt;&lt;br&gt;&lt;/div&gt;" style="text;strokeColor=none;fillColor=none;align=left;verticalAlign=top;spacingLeft=4;spacingRight=4;overflow=hidden;rotatable=0;points=[[0,0.5],[1,0.5]];portConstraint=eastwest;whiteSpace=wrap;html=1;" parent="Zf2B7JCEk5brwvJHuypl-113" vertex="1">
          <mxGeometry y="40" width="150" height="26" as="geometry" />
        </mxCell>
        <mxCell id="Zf2B7JCEk5brwvJHuypl-119" value="&amp;lt;&amp;lt;Interface&amp;gt;&amp;gt;&lt;div&gt;IProjectService&lt;/div&gt;" style="swimlane;fontStyle=0;childLayout=stackLayout;horizontal=1;startSize=40;fillColor=none;horizontalStack=0;resizeParent=1;resizeParentMax=0;resizeLast=0;collapsible=1;marginBottom=0;whiteSpace=wrap;html=1;" parent="1" vertex="1">
          <mxGeometry x="370" y="-620" width="200" height="248" as="geometry" />
        </mxCell>
        <mxCell id="Zf2B7JCEk5brwvJHuypl-120" value="+ GetProjectsByUserIdAsync()" style="text;strokeColor=none;fillColor=none;align=left;verticalAlign=top;spacingLeft=4;spacingRight=4;overflow=hidden;rotatable=0;points=[[0,0.5],[1,0.5]];portConstraint=eastwest;whiteSpace=wrap;html=1;" parent="Zf2B7JCEk5brwvJHuypl-119" vertex="1">
          <mxGeometry y="40" width="200" height="26" as="geometry" />
        </mxCell>
        <mxCell id="Zf2B7JCEk5brwvJHuypl-121" value="+ GetUsersByProjectIdAsync()" style="text;strokeColor=none;fillColor=none;align=left;verticalAlign=top;spacingLeft=4;spacingRight=4;overflow=hidden;rotatable=0;points=[[0,0.5],[1,0.5]];portConstraint=eastwest;whiteSpace=wrap;html=1;" parent="Zf2B7JCEk5brwvJHuypl-119" vertex="1">
          <mxGeometry y="66" width="200" height="26" as="geometry" />
        </mxCell>
        <mxCell id="Zf2B7JCEk5brwvJHuypl-123" value="+ CreateProjectAsync()&lt;div&gt;&lt;br&gt;&lt;/div&gt;" style="text;strokeColor=none;fillColor=none;align=left;verticalAlign=top;spacingLeft=4;spacingRight=4;overflow=hidden;rotatable=0;points=[[0,0.5],[1,0.5]];portConstraint=eastwest;whiteSpace=wrap;html=1;" parent="Zf2B7JCEk5brwvJHuypl-119" vertex="1">
          <mxGeometry y="92" width="200" height="26" as="geometry" />
        </mxCell>
        <mxCell id="6UyNxyT5E2USjWL4Qul_-46" value="+ DeleteProjectAsync()&lt;div&gt;&lt;br&gt;&lt;/div&gt;" style="text;strokeColor=none;fillColor=none;align=left;verticalAlign=top;spacingLeft=4;spacingRight=4;overflow=hidden;rotatable=0;points=[[0,0.5],[1,0.5]];portConstraint=eastwest;whiteSpace=wrap;html=1;" parent="Zf2B7JCEk5brwvJHuypl-119" vertex="1">
          <mxGeometry y="118" width="200" height="26" as="geometry" />
        </mxCell>
        <mxCell id="6UyNxyT5E2USjWL4Qul_-50" value="+ InviteUserAsync()" style="text;strokeColor=none;fillColor=none;align=left;verticalAlign=top;spacingLeft=4;spacingRight=4;overflow=hidden;rotatable=0;points=[[0,0.5],[1,0.5]];portConstraint=eastwest;whiteSpace=wrap;html=1;" parent="Zf2B7JCEk5brwvJHuypl-119" vertex="1">
          <mxGeometry y="144" width="200" height="26" as="geometry" />
        </mxCell>
        <mxCell id="6UyNxyT5E2USjWL4Qul_-49" value="+ AcceptInvitingAsync()" style="text;strokeColor=none;fillColor=none;align=left;verticalAlign=top;spacingLeft=4;spacingRight=4;overflow=hidden;rotatable=0;points=[[0,0.5],[1,0.5]];portConstraint=eastwest;whiteSpace=wrap;html=1;" parent="Zf2B7JCEk5brwvJHuypl-119" vertex="1">
          <mxGeometry y="170" width="200" height="26" as="geometry" />
        </mxCell>
        <mxCell id="6UyNxyT5E2USjWL4Qul_-48" value="+ RefuseInvitingAsync()" style="text;strokeColor=none;fillColor=none;align=left;verticalAlign=top;spacingLeft=4;spacingRight=4;overflow=hidden;rotatable=0;points=[[0,0.5],[1,0.5]];portConstraint=eastwest;whiteSpace=wrap;html=1;" parent="Zf2B7JCEk5brwvJHuypl-119" vertex="1">
          <mxGeometry y="196" width="200" height="26" as="geometry" />
        </mxCell>
        <mxCell id="6UyNxyT5E2USjWL4Qul_-47" value="+ RemoveUserFromProjectAsync()" style="text;strokeColor=none;fillColor=none;align=left;verticalAlign=top;spacingLeft=4;spacingRight=4;overflow=hidden;rotatable=0;points=[[0,0.5],[1,0.5]];portConstraint=eastwest;whiteSpace=wrap;html=1;" parent="Zf2B7JCEk5brwvJHuypl-119" vertex="1">
          <mxGeometry y="222" width="200" height="26" as="geometry" />
        </mxCell>
        <mxCell id="Zf2B7JCEk5brwvJHuypl-130" value="&amp;lt;&amp;lt;Interface&amp;gt;&amp;gt;&lt;div&gt;ICategoryService&lt;/div&gt;" style="swimlane;fontStyle=0;childLayout=stackLayout;horizontal=1;startSize=40;fillColor=none;horizontalStack=0;resizeParent=1;resizeParentMax=0;resizeLast=0;collapsible=1;marginBottom=0;whiteSpace=wrap;html=1;" parent="1" vertex="1">
          <mxGeometry x="810" y="-600" width="207" height="92" as="geometry" />
        </mxCell>
        <mxCell id="Zf2B7JCEk5brwvJHuypl-131" value="+ GetCategoriesByProjectIdAsync(()&lt;div&gt;&lt;br&gt;&lt;/div&gt;" style="text;strokeColor=none;fillColor=none;align=left;verticalAlign=top;spacingLeft=4;spacingRight=4;overflow=hidden;rotatable=0;points=[[0,0.5],[1,0.5]];portConstraint=eastwest;whiteSpace=wrap;html=1;" parent="Zf2B7JCEk5brwvJHuypl-130" vertex="1">
          <mxGeometry y="40" width="207" height="26" as="geometry" />
        </mxCell>
        <mxCell id="Zf2B7JCEk5brwvJHuypl-132" value="+ AddCategoriesToProjectAsync()" style="text;strokeColor=none;fillColor=none;align=left;verticalAlign=top;spacingLeft=4;spacingRight=4;overflow=hidden;rotatable=0;points=[[0,0.5],[1,0.5]];portConstraint=eastwest;whiteSpace=wrap;html=1;" parent="Zf2B7JCEk5brwvJHuypl-130" vertex="1">
          <mxGeometry y="66" width="207" height="26" as="geometry" />
        </mxCell>
        <mxCell id="Zf2B7JCEk5brwvJHuypl-136" value="&amp;lt;&amp;lt;Interface&amp;gt;&amp;gt;&lt;div&gt;IRecordService&lt;/div&gt;" style="swimlane;fontStyle=0;childLayout=stackLayout;horizontal=1;startSize=40;fillColor=none;horizontalStack=0;resizeParent=1;resizeParentMax=0;resizeLast=0;collapsible=1;marginBottom=0;whiteSpace=wrap;html=1;" parent="1" vertex="1">
          <mxGeometry x="1060" y="-600" width="200" height="118" as="geometry" />
        </mxCell>
        <mxCell id="Zf2B7JCEk5brwvJHuypl-137" value="+ GetRecordsAsync()&lt;div&gt;&lt;br&gt;&lt;/div&gt;" style="text;strokeColor=none;fillColor=none;align=left;verticalAlign=top;spacingLeft=4;spacingRight=4;overflow=hidden;rotatable=0;points=[[0,0.5],[1,0.5]];portConstraint=eastwest;whiteSpace=wrap;html=1;" parent="Zf2B7JCEk5brwvJHuypl-136" vertex="1">
          <mxGeometry y="40" width="200" height="26" as="geometry" />
        </mxCell>
        <mxCell id="Zf2B7JCEk5brwvJHuypl-138" value="+ AddRecordAsync()" style="text;strokeColor=none;fillColor=none;align=left;verticalAlign=top;spacingLeft=4;spacingRight=4;overflow=hidden;rotatable=0;points=[[0,0.5],[1,0.5]];portConstraint=eastwest;whiteSpace=wrap;html=1;" parent="Zf2B7JCEk5brwvJHuypl-136" vertex="1">
          <mxGeometry y="66" width="200" height="26" as="geometry" />
        </mxCell>
        <mxCell id="Zf2B7JCEk5brwvJHuypl-139" value="+ RemoveRecordAsync()" style="text;strokeColor=none;fillColor=none;align=left;verticalAlign=top;spacingLeft=4;spacingRight=4;overflow=hidden;rotatable=0;points=[[0,0.5],[1,0.5]];portConstraint=eastwest;whiteSpace=wrap;html=1;" parent="Zf2B7JCEk5brwvJHuypl-136" vertex="1">
          <mxGeometry y="92" width="200" height="26" as="geometry" />
        </mxCell>
        <mxCell id="Zf2B7JCEk5brwvJHuypl-146" value="&amp;lt;&amp;lt;Interface&amp;gt;&amp;gt;&lt;div&gt;IAuthService&lt;/div&gt;" style="swimlane;fontStyle=0;childLayout=stackLayout;horizontal=1;startSize=40;fillColor=none;horizontalStack=0;resizeParent=1;resizeParentMax=0;resizeLast=0;collapsible=1;marginBottom=0;whiteSpace=wrap;html=1;" parent="1" vertex="1">
          <mxGeometry x="200" y="-600" width="140" height="92" as="geometry" />
        </mxCell>
        <mxCell id="Zf2B7JCEk5brwvJHuypl-147" value="+ Login()" style="text;strokeColor=none;fillColor=none;align=left;verticalAlign=top;spacingLeft=4;spacingRight=4;overflow=hidden;rotatable=0;points=[[0,0.5],[1,0.5]];portConstraint=eastwest;whiteSpace=wrap;html=1;" parent="Zf2B7JCEk5brwvJHuypl-146" vertex="1">
          <mxGeometry y="40" width="140" height="26" as="geometry" />
        </mxCell>
        <mxCell id="Zf2B7JCEk5brwvJHuypl-148" value="+Registrate()&lt;div&gt;&lt;br&gt;&lt;/div&gt;" style="text;strokeColor=none;fillColor=none;align=left;verticalAlign=top;spacingLeft=4;spacingRight=4;overflow=hidden;rotatable=0;points=[[0,0.5],[1,0.5]];portConstraint=eastwest;whiteSpace=wrap;html=1;" parent="Zf2B7JCEk5brwvJHuypl-146" vertex="1">
          <mxGeometry y="66" width="140" height="26" as="geometry" />
        </mxCell>
        <mxCell id="Zf2B7JCEk5brwvJHuypl-150" value="UserService" style="swimlane;fontStyle=0;childLayout=stackLayout;horizontal=1;startSize=40;fillColor=none;horizontalStack=0;resizeParent=1;resizeParentMax=0;resizeLast=0;collapsible=1;marginBottom=0;whiteSpace=wrap;html=1;" parent="1" vertex="1">
          <mxGeometry x="35" y="-320" width="150" height="66" as="geometry" />
        </mxCell>
        <mxCell id="Zf2B7JCEk5brwvJHuypl-152" value="+ GetUserByLoginAsync()&lt;div&gt;&lt;br&gt;&lt;/div&gt;" style="text;strokeColor=none;fillColor=none;align=left;verticalAlign=top;spacingLeft=4;spacingRight=4;overflow=hidden;rotatable=0;points=[[0,0.5],[1,0.5]];portConstraint=eastwest;whiteSpace=wrap;html=1;" parent="Zf2B7JCEk5brwvJHuypl-150" vertex="1">
          <mxGeometry y="40" width="150" height="26" as="geometry" />
        </mxCell>
        <mxCell id="Zf2B7JCEk5brwvJHuypl-153" value="ProjectService" style="swimlane;fontStyle=0;childLayout=stackLayout;horizontal=1;startSize=40;fillColor=none;horizontalStack=0;resizeParent=1;resizeParentMax=0;resizeLast=0;collapsible=1;marginBottom=0;whiteSpace=wrap;html=1;" parent="1" vertex="1">
          <mxGeometry x="370" y="-340" width="200" height="248" as="geometry" />
        </mxCell>
        <mxCell id="6UyNxyT5E2USjWL4Qul_-51" value="+ GetProjectsByUserIdAsync()" style="text;strokeColor=none;fillColor=none;align=left;verticalAlign=top;spacingLeft=4;spacingRight=4;overflow=hidden;rotatable=0;points=[[0,0.5],[1,0.5]];portConstraint=eastwest;whiteSpace=wrap;html=1;" parent="Zf2B7JCEk5brwvJHuypl-153" vertex="1">
          <mxGeometry y="40" width="200" height="26" as="geometry" />
        </mxCell>
        <mxCell id="6UyNxyT5E2USjWL4Qul_-52" value="+ GetUsersByProjectIdAsync()" style="text;strokeColor=none;fillColor=none;align=left;verticalAlign=top;spacingLeft=4;spacingRight=4;overflow=hidden;rotatable=0;points=[[0,0.5],[1,0.5]];portConstraint=eastwest;whiteSpace=wrap;html=1;" parent="Zf2B7JCEk5brwvJHuypl-153" vertex="1">
          <mxGeometry y="66" width="200" height="26" as="geometry" />
        </mxCell>
        <mxCell id="6UyNxyT5E2USjWL4Qul_-53" value="+ CreateProjectAsync()&lt;div&gt;&lt;br&gt;&lt;/div&gt;" style="text;strokeColor=none;fillColor=none;align=left;verticalAlign=top;spacingLeft=4;spacingRight=4;overflow=hidden;rotatable=0;points=[[0,0.5],[1,0.5]];portConstraint=eastwest;whiteSpace=wrap;html=1;" parent="Zf2B7JCEk5brwvJHuypl-153" vertex="1">
          <mxGeometry y="92" width="200" height="26" as="geometry" />
        </mxCell>
        <mxCell id="6UyNxyT5E2USjWL4Qul_-58" value="+ RemoveUserAsync()" style="text;strokeColor=none;fillColor=none;align=left;verticalAlign=top;spacingLeft=4;spacingRight=4;overflow=hidden;rotatable=0;points=[[0,0.5],[1,0.5]];portConstraint=eastwest;whiteSpace=wrap;html=1;" parent="Zf2B7JCEk5brwvJHuypl-153" vertex="1">
          <mxGeometry y="118" width="200" height="26" as="geometry" />
        </mxCell>
        <mxCell id="6UyNxyT5E2USjWL4Qul_-57" value="+ RefuseInvitingAsync()" style="text;strokeColor=none;fillColor=none;align=left;verticalAlign=top;spacingLeft=4;spacingRight=4;overflow=hidden;rotatable=0;points=[[0,0.5],[1,0.5]];portConstraint=eastwest;whiteSpace=wrap;html=1;" parent="Zf2B7JCEk5brwvJHuypl-153" vertex="1">
          <mxGeometry y="144" width="200" height="26" as="geometry" />
        </mxCell>
        <mxCell id="6UyNxyT5E2USjWL4Qul_-56" value="+ AcceptInvitingAsync()" style="text;strokeColor=none;fillColor=none;align=left;verticalAlign=top;spacingLeft=4;spacingRight=4;overflow=hidden;rotatable=0;points=[[0,0.5],[1,0.5]];portConstraint=eastwest;whiteSpace=wrap;html=1;" parent="Zf2B7JCEk5brwvJHuypl-153" vertex="1">
          <mxGeometry y="170" width="200" height="26" as="geometry" />
        </mxCell>
        <mxCell id="6UyNxyT5E2USjWL4Qul_-55" value="+ InviteUserToProjectAsync()" style="text;strokeColor=none;fillColor=none;align=left;verticalAlign=top;spacingLeft=4;spacingRight=4;overflow=hidden;rotatable=0;points=[[0,0.5],[1,0.5]];portConstraint=eastwest;whiteSpace=wrap;html=1;" parent="Zf2B7JCEk5brwvJHuypl-153" vertex="1">
          <mxGeometry y="196" width="200" height="26" as="geometry" />
        </mxCell>
        <mxCell id="6UyNxyT5E2USjWL4Qul_-54" value="+ DeleteProjectAsync()&lt;div&gt;&lt;br&gt;&lt;/div&gt;" style="text;strokeColor=none;fillColor=none;align=left;verticalAlign=top;spacingLeft=4;spacingRight=4;overflow=hidden;rotatable=0;points=[[0,0.5],[1,0.5]];portConstraint=eastwest;whiteSpace=wrap;html=1;" parent="Zf2B7JCEk5brwvJHuypl-153" vertex="1">
          <mxGeometry y="222" width="200" height="26" as="geometry" />
        </mxCell>
        <mxCell id="Zf2B7JCEk5brwvJHuypl-163" value="CategoryService" style="swimlane;fontStyle=0;childLayout=stackLayout;horizontal=1;startSize=40;fillColor=none;horizontalStack=0;resizeParent=1;resizeParentMax=0;resizeLast=0;collapsible=1;marginBottom=0;whiteSpace=wrap;html=1;" parent="1" vertex="1">
          <mxGeometry x="810" y="-320" width="210" height="92" as="geometry" />
        </mxCell>
        <mxCell id="6UyNxyT5E2USjWL4Qul_-59" value="+ GetCategoriesByProjectIdAsync(()&lt;div&gt;&lt;br&gt;&lt;/div&gt;" style="text;strokeColor=none;fillColor=none;align=left;verticalAlign=top;spacingLeft=4;spacingRight=4;overflow=hidden;rotatable=0;points=[[0,0.5],[1,0.5]];portConstraint=eastwest;whiteSpace=wrap;html=1;" parent="Zf2B7JCEk5brwvJHuypl-163" vertex="1">
          <mxGeometry y="40" width="210" height="26" as="geometry" />
        </mxCell>
        <mxCell id="6UyNxyT5E2USjWL4Qul_-60" value="+ AddCategoriesToProjectAsync()" style="text;strokeColor=none;fillColor=none;align=left;verticalAlign=top;spacingLeft=4;spacingRight=4;overflow=hidden;rotatable=0;points=[[0,0.5],[1,0.5]];portConstraint=eastwest;whiteSpace=wrap;html=1;" parent="Zf2B7JCEk5brwvJHuypl-163" vertex="1">
          <mxGeometry y="66" width="210" height="26" as="geometry" />
        </mxCell>
        <mxCell id="Zf2B7JCEk5brwvJHuypl-166" value="RecordService" style="swimlane;fontStyle=0;childLayout=stackLayout;horizontal=1;startSize=40;fillColor=none;horizontalStack=0;resizeParent=1;resizeParentMax=0;resizeLast=0;collapsible=1;marginBottom=0;whiteSpace=wrap;html=1;" parent="1" vertex="1">
          <mxGeometry x="1060" y="-320" width="200" height="118" as="geometry" />
        </mxCell>
        <mxCell id="6UyNxyT5E2USjWL4Qul_-61" value="+ GetRecordsAsync()&lt;div&gt;&lt;br&gt;&lt;/div&gt;" style="text;strokeColor=none;fillColor=none;align=left;verticalAlign=top;spacingLeft=4;spacingRight=4;overflow=hidden;rotatable=0;points=[[0,0.5],[1,0.5]];portConstraint=eastwest;whiteSpace=wrap;html=1;" parent="Zf2B7JCEk5brwvJHuypl-166" vertex="1">
          <mxGeometry y="40" width="200" height="26" as="geometry" />
        </mxCell>
        <mxCell id="6UyNxyT5E2USjWL4Qul_-63" value="+ RemoveRecordAsync()" style="text;strokeColor=none;fillColor=none;align=left;verticalAlign=top;spacingLeft=4;spacingRight=4;overflow=hidden;rotatable=0;points=[[0,0.5],[1,0.5]];portConstraint=eastwest;whiteSpace=wrap;html=1;" parent="Zf2B7JCEk5brwvJHuypl-166" vertex="1">
          <mxGeometry y="66" width="200" height="26" as="geometry" />
        </mxCell>
        <mxCell id="6UyNxyT5E2USjWL4Qul_-62" value="+ AddRecordAsync()" style="text;strokeColor=none;fillColor=none;align=left;verticalAlign=top;spacingLeft=4;spacingRight=4;overflow=hidden;rotatable=0;points=[[0,0.5],[1,0.5]];portConstraint=eastwest;whiteSpace=wrap;html=1;" parent="Zf2B7JCEk5brwvJHuypl-166" vertex="1">
          <mxGeometry y="92" width="200" height="26" as="geometry" />
        </mxCell>
        <mxCell id="Zf2B7JCEk5brwvJHuypl-170" value="AuthService" style="swimlane;fontStyle=0;childLayout=stackLayout;horizontal=1;startSize=40;fillColor=none;horizontalStack=0;resizeParent=1;resizeParentMax=0;resizeLast=0;collapsible=1;marginBottom=0;whiteSpace=wrap;html=1;" parent="1" vertex="1">
          <mxGeometry x="200" y="-320" width="140" height="92" as="geometry" />
        </mxCell>
        <mxCell id="Zf2B7JCEk5brwvJHuypl-171" value="+ Login()" style="text;strokeColor=none;fillColor=none;align=left;verticalAlign=top;spacingLeft=4;spacingRight=4;overflow=hidden;rotatable=0;points=[[0,0.5],[1,0.5]];portConstraint=eastwest;whiteSpace=wrap;html=1;" parent="Zf2B7JCEk5brwvJHuypl-170" vertex="1">
          <mxGeometry y="40" width="140" height="26" as="geometry" />
        </mxCell>
        <mxCell id="Zf2B7JCEk5brwvJHuypl-172" value="+Registrate()&lt;div&gt;&lt;br&gt;&lt;/div&gt;" style="text;strokeColor=none;fillColor=none;align=left;verticalAlign=top;spacingLeft=4;spacingRight=4;overflow=hidden;rotatable=0;points=[[0,0.5],[1,0.5]];portConstraint=eastwest;whiteSpace=wrap;html=1;" parent="Zf2B7JCEk5brwvJHuypl-170" vertex="1">
          <mxGeometry y="66" width="140" height="26" as="geometry" />
        </mxCell>
        <mxCell id="Zf2B7JCEk5brwvJHuypl-178" value="" style="endArrow=block;dashed=1;endFill=0;endSize=12;html=1;rounded=0;exitX=0.5;exitY=0;exitDx=0;exitDy=0;entryX=0.488;entryY=0.955;entryDx=0;entryDy=0;entryPerimeter=0;" parent="1" source="Zf2B7JCEk5brwvJHuypl-36" target="Zf2B7JCEk5brwvJHuypl-89" edge="1">
          <mxGeometry width="160" relative="1" as="geometry">
            <mxPoint x="160" y="220" as="sourcePoint" />
            <mxPoint x="320" y="220" as="targetPoint" />
          </mxGeometry>
        </mxCell>
        <mxCell id="Zf2B7JCEk5brwvJHuypl-179" value="" style="endArrow=block;dashed=1;endFill=0;endSize=12;html=1;rounded=0;exitX=0.5;exitY=0;exitDx=0;exitDy=0;" parent="1" source="Zf2B7JCEk5brwvJHuypl-43" edge="1">
          <mxGeometry width="160" relative="1" as="geometry">
            <mxPoint x="322" y="321" as="sourcePoint" />
            <mxPoint x="469" y="110" as="targetPoint" />
          </mxGeometry>
        </mxCell>
        <mxCell id="Zf2B7JCEk5brwvJHuypl-180" value="" style="endArrow=block;dashed=1;endFill=0;endSize=12;html=1;rounded=0;exitX=0.5;exitY=0;exitDx=0;exitDy=0;" parent="1" source="Zf2B7JCEk5brwvJHuypl-50" target="Zf2B7JCEk5brwvJHuypl-100" edge="1">
          <mxGeometry width="160" relative="1" as="geometry">
            <mxPoint x="130" y="350" as="sourcePoint" />
            <mxPoint x="128" y="149" as="targetPoint" />
          </mxGeometry>
        </mxCell>
        <mxCell id="Zf2B7JCEk5brwvJHuypl-181" value="" style="endArrow=block;dashed=1;endFill=0;endSize=12;html=1;rounded=0;exitX=0.5;exitY=0;exitDx=0;exitDy=0;" parent="1" source="Zf2B7JCEk5brwvJHuypl-69" edge="1">
          <mxGeometry width="160" relative="1" as="geometry">
            <mxPoint x="140" y="360" as="sourcePoint" />
            <mxPoint x="922" y="160" as="targetPoint" />
          </mxGeometry>
        </mxCell>
        <mxCell id="Zf2B7JCEk5brwvJHuypl-182" value="" style="endArrow=block;dashed=1;endFill=0;endSize=12;html=1;rounded=0;exitX=0.5;exitY=0;exitDx=0;exitDy=0;" parent="1" source="Zf2B7JCEk5brwvJHuypl-76" edge="1">
          <mxGeometry width="160" relative="1" as="geometry">
            <mxPoint x="885" y="340" as="sourcePoint" />
            <mxPoint x="1160" y="130" as="targetPoint" />
          </mxGeometry>
        </mxCell>
        <mxCell id="Zf2B7JCEk5brwvJHuypl-187" value="" style="endArrow=block;dashed=1;endFill=0;endSize=12;html=1;rounded=0;exitX=0.5;exitY=0;exitDx=0;exitDy=0;" parent="1" source="Zf2B7JCEk5brwvJHuypl-166" target="Zf2B7JCEk5brwvJHuypl-139" edge="1">
          <mxGeometry width="160" relative="1" as="geometry">
            <mxPoint x="1150" y="-348" as="sourcePoint" />
            <mxPoint x="1150" y="-510" as="targetPoint" />
          </mxGeometry>
        </mxCell>
        <mxCell id="Zf2B7JCEk5brwvJHuypl-188" value="" style="endArrow=block;dashed=1;endFill=0;endSize=12;html=1;rounded=0;exitX=0.5;exitY=0;exitDx=0;exitDy=0;" parent="1" source="Zf2B7JCEk5brwvJHuypl-163" target="Zf2B7JCEk5brwvJHuypl-132" edge="1">
          <mxGeometry width="160" relative="1" as="geometry">
            <mxPoint x="1180" y="-20" as="sourcePoint" />
            <mxPoint x="1180" y="-182" as="targetPoint" />
          </mxGeometry>
        </mxCell>
        <mxCell id="Zf2B7JCEk5brwvJHuypl-190" value="" style="endArrow=block;dashed=1;endFill=0;endSize=12;html=1;rounded=0;exitX=0.5;exitY=0;exitDx=0;exitDy=0;entryX=0.5;entryY=0.923;entryDx=0;entryDy=0;entryPerimeter=0;" parent="1" source="Zf2B7JCEk5brwvJHuypl-153" target="6UyNxyT5E2USjWL4Qul_-47" edge="1">
          <mxGeometry width="160" relative="1" as="geometry">
            <mxPoint x="942" y="-300" as="sourcePoint" />
            <mxPoint x="470" y="-350" as="targetPoint" />
          </mxGeometry>
        </mxCell>
        <mxCell id="Zf2B7JCEk5brwvJHuypl-191" value="" style="endArrow=block;dashed=1;endFill=0;endSize=12;html=1;rounded=0;exitX=0.5;exitY=0;exitDx=0;exitDy=0;entryX=0.51;entryY=0.955;entryDx=0;entryDy=0;entryPerimeter=0;" parent="1" source="Zf2B7JCEk5brwvJHuypl-170" target="Zf2B7JCEk5brwvJHuypl-148" edge="1">
          <mxGeometry width="160" relative="1" as="geometry">
            <mxPoint x="480" y="-310" as="sourcePoint" />
            <mxPoint x="480" y="-472" as="targetPoint" />
          </mxGeometry>
        </mxCell>
        <mxCell id="Zf2B7JCEk5brwvJHuypl-192" value="" style="endArrow=block;dashed=1;endFill=0;endSize=12;html=1;rounded=0;exitX=0.5;exitY=0;exitDx=0;exitDy=0;" parent="1" source="Zf2B7JCEk5brwvJHuypl-150" target="Zf2B7JCEk5brwvJHuypl-118" edge="1">
          <mxGeometry width="160" relative="1" as="geometry">
            <mxPoint x="300" y="-310" as="sourcePoint" />
            <mxPoint x="301" y="-499" as="targetPoint" />
          </mxGeometry>
        </mxCell>
        <mxCell id="Zf2B7JCEk5brwvJHuypl-193" value="" style="endArrow=open;endSize=12;dashed=1;html=1;rounded=0;" parent="1" source="Zf2B7JCEk5brwvJHuypl-152" target="Zf2B7JCEk5brwvJHuypl-84" edge="1">
          <mxGeometry width="160" relative="1" as="geometry">
            <mxPoint x="290" y="-70" as="sourcePoint" />
            <mxPoint x="450" y="-70" as="targetPoint" />
          </mxGeometry>
        </mxCell>
        <mxCell id="Zf2B7JCEk5brwvJHuypl-194" value="" style="endArrow=open;endSize=12;dashed=1;html=1;rounded=0;exitX=0.477;exitY=0.967;exitDx=0;exitDy=0;exitPerimeter=0;entryX=0.5;entryY=0;entryDx=0;entryDy=0;" parent="1" source="Zf2B7JCEk5brwvJHuypl-172" target="Zf2B7JCEk5brwvJHuypl-84" edge="1">
          <mxGeometry width="160" relative="1" as="geometry">
            <mxPoint x="120" y="-218" as="sourcePoint" />
            <mxPoint x="110" y="-40" as="targetPoint" />
            <Array as="points">
              <mxPoint x="267" y="-120" />
              <mxPoint x="110" y="-120" />
            </Array>
          </mxGeometry>
        </mxCell>
        <mxCell id="Zf2B7JCEk5brwvJHuypl-195" value="" style="endArrow=open;endSize=12;dashed=1;html=1;rounded=0;entryX=0.557;entryY=0.007;entryDx=0;entryDy=0;entryPerimeter=0;" parent="1" target="Zf2B7JCEk5brwvJHuypl-90" edge="1">
          <mxGeometry width="160" relative="1" as="geometry">
            <mxPoint x="480" y="-90" as="sourcePoint" />
            <mxPoint x="130" y="-20" as="targetPoint" />
            <Array as="points" />
          </mxGeometry>
        </mxCell>
        <mxCell id="Zf2B7JCEk5brwvJHuypl-196" value="" style="endArrow=open;endSize=12;dashed=1;html=1;rounded=0;exitX=-0.005;exitY=0.077;exitDx=0;exitDy=0;exitPerimeter=0;" parent="1" source="6UyNxyT5E2USjWL4Qul_-56" edge="1">
          <mxGeometry width="160" relative="1" as="geometry">
            <mxPoint x="432.05999999999995" y="-199.99800000000005" as="sourcePoint" />
            <mxPoint x="80" y="-44" as="targetPoint" />
            <Array as="points">
              <mxPoint x="80" y="-170" />
            </Array>
          </mxGeometry>
        </mxCell>
        <mxCell id="Zf2B7JCEk5brwvJHuypl-197" value="" style="endArrow=open;endSize=12;dashed=1;html=1;rounded=0;entryX=0.538;entryY=-0.018;entryDx=0;entryDy=0;entryPerimeter=0;exitX=1;exitY=0.5;exitDx=0;exitDy=0;" parent="1" target="Zf2B7JCEk5brwvJHuypl-95" edge="1" source="6UyNxyT5E2USjWL4Qul_-55">
          <mxGeometry width="160" relative="1" as="geometry">
            <mxPoint x="570" y="-90" as="sourcePoint" />
            <mxPoint x="150" as="targetPoint" />
            <Array as="points">
              <mxPoint x="683" y="-131" />
            </Array>
          </mxGeometry>
        </mxCell>
        <mxCell id="Zf2B7JCEk5brwvJHuypl-201" value="" style="endArrow=open;endSize=12;dashed=1;html=1;rounded=0;exitX=0.49;exitY=1.04;exitDx=0;exitDy=0;exitPerimeter=0;entryX=0.5;entryY=0;entryDx=0;entryDy=0;" parent="1" target="Zf2B7JCEk5brwvJHuypl-101" edge="1">
          <mxGeometry width="160" relative="1" as="geometry">
            <mxPoint x="920.0999999999999" y="-226.96000000000004" as="sourcePoint" />
            <mxPoint x="950" as="targetPoint" />
          </mxGeometry>
        </mxCell>
        <mxCell id="Zf2B7JCEk5brwvJHuypl-202" value="" style="endArrow=open;endSize=12;dashed=1;html=1;rounded=0;exitX=0.491;exitY=1.029;exitDx=0;exitDy=0;exitPerimeter=0;entryX=0.5;entryY=0;entryDx=0;entryDy=0;" parent="1" target="Zf2B7JCEk5brwvJHuypl-107" edge="1">
          <mxGeometry width="160" relative="1" as="geometry">
            <mxPoint x="1158.1999999999998" y="-201.2460000000001" as="sourcePoint" />
            <mxPoint x="933" y="-30" as="targetPoint" />
          </mxGeometry>
        </mxCell>
        <mxCell id="Zf2B7JCEk5brwvJHuypl-204" value="" style="endArrow=open;endSize=12;dashed=1;html=1;rounded=0;exitX=0.002;exitY=-0.004;exitDx=0;exitDy=0;exitPerimeter=0;entryX=0.5;entryY=0;entryDx=0;entryDy=0;" parent="1" target="Zf2B7JCEk5brwvJHuypl-1" edge="1">
          <mxGeometry width="160" relative="1" as="geometry">
            <mxPoint x="40.27999999999997" y="-560.104" as="sourcePoint" />
            <mxPoint x="20" y="570" as="targetPoint" />
            <Array as="points">
              <mxPoint x="20" y="-560" />
              <mxPoint x="20" y="570" />
              <mxPoint x="110" y="570" />
            </Array>
          </mxGeometry>
        </mxCell>
        <mxCell id="Zf2B7JCEk5brwvJHuypl-206" value="" style="endArrow=open;endSize=12;dashed=1;html=1;rounded=0;exitX=0;exitY=0.5;exitDx=0;exitDy=0;entryX=0.5;entryY=0;entryDx=0;entryDy=0;" parent="1" source="Zf2B7JCEk5brwvJHuypl-121" target="Zf2B7JCEk5brwvJHuypl-8" edge="1">
          <mxGeometry width="160" relative="1" as="geometry">
            <mxPoint x="130" y="-208" as="sourcePoint" />
            <mxPoint x="130" y="-20" as="targetPoint" />
            <Array as="points">
              <mxPoint x="350" y="-541" />
              <mxPoint x="350" y="560" />
              <mxPoint x="320" y="560" />
            </Array>
          </mxGeometry>
        </mxCell>
        <mxCell id="Zf2B7JCEk5brwvJHuypl-207" value="" style="endArrow=open;endSize=12;dashed=1;html=1;rounded=0;entryX=0.5;entryY=0;entryDx=0;entryDy=0;" parent="1" target="Zf2B7JCEk5brwvJHuypl-13" edge="1">
          <mxGeometry width="160" relative="1" as="geometry">
            <mxPoint x="810" y="110" as="sourcePoint" />
            <mxPoint x="140" y="-10" as="targetPoint" />
            <Array as="points">
              <mxPoint x="810" y="560" />
              <mxPoint x="585" y="560" />
            </Array>
          </mxGeometry>
        </mxCell>
        <mxCell id="Zf2B7JCEk5brwvJHuypl-208" value="" style="endArrow=open;endSize=12;dashed=1;html=1;rounded=0;exitX=1;exitY=0.25;exitDx=0;exitDy=0;entryX=0.5;entryY=0;entryDx=0;entryDy=0;" parent="1" source="Zf2B7JCEk5brwvJHuypl-130" target="Zf2B7JCEk5brwvJHuypl-30" edge="1">
          <mxGeometry width="160" relative="1" as="geometry">
            <mxPoint x="687" y="-139" as="sourcePoint" />
            <mxPoint x="830" y="210" as="targetPoint" />
            <Array as="points">
              <mxPoint x="1040" y="-577" />
              <mxPoint x="1040" y="560" />
              <mxPoint x="875" y="560" />
            </Array>
          </mxGeometry>
        </mxCell>
        <mxCell id="Zf2B7JCEk5brwvJHuypl-209" value="" style="endArrow=open;endSize=12;dashed=1;html=1;rounded=0;exitX=1;exitY=0.5;exitDx=0;exitDy=0;entryX=0.5;entryY=0;entryDx=0;entryDy=0;" parent="1" source="Zf2B7JCEk5brwvJHuypl-137" target="Zf2B7JCEk5brwvJHuypl-23" edge="1">
          <mxGeometry width="160" relative="1" as="geometry">
            <mxPoint x="1291.111111111111" y="-430" as="sourcePoint" />
            <mxPoint x="1300" y="180" as="targetPoint" />
            <Array as="points">
              <mxPoint x="1300" y="-550" />
              <mxPoint x="1300" y="50" />
              <mxPoint x="1300" y="560" />
              <mxPoint x="1160" y="560" />
            </Array>
          </mxGeometry>
        </mxCell>
        <mxCell id="Zf2B7JCEk5brwvJHuypl-210" value="" style="endArrow=none;dashed=1;html=1;rounded=0;entryX=1;entryY=0.5;entryDx=0;entryDy=0;" parent="1" target="Zf2B7JCEk5brwvJHuypl-109" edge="1">
          <mxGeometry width="50" height="50" relative="1" as="geometry">
            <mxPoint x="1300" y="39" as="sourcePoint" />
            <mxPoint x="1090" y="70" as="targetPoint" />
          </mxGeometry>
        </mxCell>
        <mxCell id="Zf2B7JCEk5brwvJHuypl-211" value="" style="endArrow=none;dashed=1;html=1;rounded=0;entryX=1;entryY=0.5;entryDx=0;entryDy=0;" parent="1" target="Zf2B7JCEk5brwvJHuypl-103" edge="1">
          <mxGeometry width="50" height="50" relative="1" as="geometry">
            <mxPoint x="1040" y="40" as="sourcePoint" />
            <mxPoint x="800" y="40" as="targetPoint" />
          </mxGeometry>
        </mxCell>
        <mxCell id="Zf2B7JCEk5brwvJHuypl-212" value="" style="endArrow=none;dashed=1;html=1;rounded=0;exitX=1;exitY=0.5;exitDx=0;exitDy=0;" parent="1" source="Zf2B7JCEk5brwvJHuypl-97" edge="1">
          <mxGeometry width="50" height="50" relative="1" as="geometry">
            <mxPoint x="470" y="90" as="sourcePoint" />
            <mxPoint x="810" y="115" as="targetPoint" />
          </mxGeometry>
        </mxCell>
        <mxCell id="Zf2B7JCEk5brwvJHuypl-213" value="" style="endArrow=none;dashed=1;html=1;rounded=0;entryX=0;entryY=0.5;entryDx=0;entryDy=0;" parent="1" edge="1">
          <mxGeometry width="50" height="50" relative="1" as="geometry">
            <mxPoint x="350" y="40" as="sourcePoint" />
            <mxPoint x="400" y="39" as="targetPoint" />
          </mxGeometry>
        </mxCell>
        <mxCell id="Zf2B7JCEk5brwvJHuypl-214" value="" style="endArrow=none;dashed=1;html=1;rounded=0;entryX=0;entryY=0.5;entryDx=0;entryDy=0;" parent="1" target="Zf2B7JCEk5brwvJHuypl-86" edge="1">
          <mxGeometry width="50" height="50" relative="1" as="geometry">
            <mxPoint x="20" y="39" as="sourcePoint" />
            <mxPoint x="140" y="40" as="targetPoint" />
          </mxGeometry>
        </mxCell>
        <mxCell id="Zf2B7JCEk5brwvJHuypl-215" value="Entity" style="line;strokeWidth=1;fillColor=none;align=left;verticalAlign=middle;spacingTop=-1;spacingLeft=3;spacingRight=3;rotatable=0;labelPosition=right;points=[];portConstraint=eastwest;strokeColor=inherit;fontSize=13;" parent="1" vertex="1">
          <mxGeometry y="520" width="1330" height="8" as="geometry" />
        </mxCell>
        <mxCell id="Zf2B7JCEk5brwvJHuypl-224" value="Database Access" style="line;strokeWidth=1;fillColor=none;align=left;verticalAlign=middle;spacingTop=-1;spacingLeft=3;spacingRight=3;rotatable=0;labelPosition=right;points=[];portConstraint=eastwest;strokeColor=inherit;" parent="1" vertex="1">
          <mxGeometry y="232" width="1360" height="8" as="geometry" />
        </mxCell>
        <mxCell id="Zf2B7JCEk5brwvJHuypl-225" value="Business Logic" style="line;strokeWidth=1;fillColor=none;align=left;verticalAlign=middle;spacingTop=-1;spacingLeft=3;spacingRight=3;rotatable=0;labelPosition=right;points=[];portConstraint=eastwest;strokeColor=inherit;" parent="1" vertex="1">
          <mxGeometry x="20" y="-650" width="1310" height="8" as="geometry" />
        </mxCell>
        <mxCell id="hEdlu353n6achSnGoiE1-6" value="" style="endArrow=open;endSize=12;dashed=1;html=1;rounded=0;entryX=0.75;entryY=0;entryDx=0;entryDy=0;exitX=0.424;exitY=1.115;exitDx=0;exitDy=0;exitPerimeter=0;" edge="1" parent="1" source="6UyNxyT5E2USjWL4Qul_-60" target="Zf2B7JCEk5brwvJHuypl-90">
          <mxGeometry width="160" relative="1" as="geometry">
            <mxPoint x="690" y="-160" as="sourcePoint" />
            <mxPoint x="803" y="-73" as="targetPoint" />
            <Array as="points">
              <mxPoint x="899" y="-70" />
              <mxPoint x="505" y="-70" />
            </Array>
          </mxGeometry>
        </mxCell>
        <mxCell id="hEdlu353n6achSnGoiE1-7" value="" style="endArrow=open;endSize=12;dashed=1;html=1;rounded=0;exitX=0.25;exitY=1.115;exitDx=0;exitDy=0;exitPerimeter=0;entryX=0.75;entryY=0;entryDx=0;entryDy=0;" edge="1" parent="1" source="6UyNxyT5E2USjWL4Qul_-62" target="Zf2B7JCEk5brwvJHuypl-101">
          <mxGeometry width="160" relative="1" as="geometry">
            <mxPoint x="1099.9999999999998" y="-201.2460000000001" as="sourcePoint" />
            <mxPoint x="1101.8" y="-40" as="targetPoint" />
            <Array as="points">
              <mxPoint x="1110" y="-80" />
              <mxPoint x="970" y="-80" />
            </Array>
          </mxGeometry>
        </mxCell>
        <mxCell id="hEdlu353n6achSnGoiE1-8" value="" style="endArrow=open;endSize=12;dashed=1;html=1;rounded=0;exitX=0.1;exitY=1.038;exitDx=0;exitDy=0;exitPerimeter=0;entryX=0.75;entryY=0;entryDx=0;entryDy=0;" edge="1" parent="1" source="6UyNxyT5E2USjWL4Qul_-62" target="Zf2B7JCEk5brwvJHuypl-95">
          <mxGeometry width="160" relative="1" as="geometry">
            <mxPoint x="1178.1999999999998" y="-181.2460000000001" as="sourcePoint" />
            <mxPoint x="1180" y="-20" as="targetPoint" />
            <Array as="points">
              <mxPoint x="1080" y="-130" />
              <mxPoint x="728" y="-130" />
            </Array>
          </mxGeometry>
        </mxCell>
      </root>
    </mxGraphModel>
  </diagram>
</mxfile>
